<svg fill="#000000" height="200px" width="200px" version="1.1" id="Layer_1" xmlns="http://www.w3.org/2000/svg" xmlns:xlink="http://www.w3.org/1999/xlink" viewBox="0 0 512 512" xml:space="preserve"><g id="SVGRepo_bgCarrier" stroke-width="0"></g><g id="SVGRepo_tracerCarrier" stroke-linecap="round" stroke-linejoin="round"></g><g id="SVGRepo_iconCarrier"> <g> <g> <path d="M331.258,244.27C363.2,220.974,384,183.273,384,140.8c0-16.818-3.232-33.146-9.599-48.604V57.6 c0-31.761-25.838-57.6-57.6-57.6H195.2c-31.761,0-57.6,25.839-57.6,57.6v34.592c-6.367,15.461-9.6,31.789-9.6,48.608 c0,42.473,20.8,80.174,52.742,103.47C101.339,274.656,44.8,351.643,44.8,441.6c0,38.819,31.581,70.4,70.4,70.4h281.6 c38.819,0,70.4-31.581,70.4-70.4C467.2,351.643,410.661,274.656,331.258,244.27z M176,57.6c0-10.587,8.613-19.2,19.2-19.2h121.601 c10.587,0,19.2,8.613,19.2,19.2v19.2H176V57.6z M179.731,187.715c-8.439-13.654-13.331-29.716-13.331-46.915 c0-8.762,1.249-17.331,3.725-25.6h171.75c2.477,8.269,3.725,16.838,3.725,25.6c0,17.201-4.883,33.275-13.322,46.929 c-4.792-7.721-11.948-14.628-21.144-20.146C296.105,158.566,276.525,153.6,256,153.6c-20.523,0-40.104,4.966-55.132,13.983 C191.676,173.097,184.525,179.999,179.731,187.715z M300.8,211.2c0,6.769-17.009,19.2-44.8,19.2s-44.8-12.431-44.8-19.2 c0-6.769,17.009-19.2,44.8-19.2S300.8,204.431,300.8,211.2z M396.8,473.6H115.2c-17.645,0-32-14.355-32-32 c0-95.283,77.518-172.8,172.8-172.8s172.8,77.517,172.8,172.8C428.8,459.245,414.445,473.6,396.8,473.6z"></path> </g> </g> </g></svg>