<svg fill="#000000" height="200px" width="200px" version="1.1" id="Layer_1" xmlns="http://www.w3.org/2000/svg" xmlns:xlink="http://www.w3.org/1999/xlink" viewBox="0 0 512 512" xml:space="preserve"><g id="SVGRepo_bgCarrier" stroke-width="0"></g><g id="SVGRepo_tracerCarrier" stroke-linecap="round" stroke-linejoin="round"></g><g id="SVGRepo_iconCarrier"> <g> <g> <path d="M504.528,123.775l-118.54-80.662c-2.89-1.961-6.325-2.959-9.607-2.959h-66.306c-9.431,0-17.076,7.646-17.076,17.076 c0,20.402-16.597,36.999-36.998,36.999s-36.999-16.597-36.999-36.999c0-9.431-7.646-17.076-17.076-17.076H135.62 c-3.345,0-6.725,1.003-9.608,2.959L7.472,123.775c-7.136,4.855-9.526,14.271-5.573,21.943l50.09,97.163 c5.133,9.957,18.379,12.391,26.704,4.774l39.849-36.451c0,8.348,0,235.586,0,243.565c0,9.431,7.646,17.076,17.076,17.076H376.38 c9.431,0,17.076-7.646,17.076-17.076v-90.191l5.257,7.69c5.323,7.787,15.95,9.781,23.735,4.459 c7.786-5.322,9.782-15.949,4.459-23.735l-33.451-48.929v-92.859l39.849,36.451c8.304,7.596,21.555,5.213,26.704-4.774 l50.09-97.163C514.055,138.047,511.664,128.631,504.528,123.775z M118.543,164.92l-46.425,42.466l-32.933-63.881l79.358-54.001 V164.92z M152.696,74.307h34.224c7.666,31.014,35.73,54.075,69.08,54.075s61.413-23.061,69.08-54.075h34.224V292.27H152.696 V74.307z M359.306,437.693h-206.61V326.421h191.327l-18.166,26.572c-5.323,7.786-3.326,18.412,4.459,23.735 c7.789,5.323,18.413,3.325,23.735-4.459l5.255-7.687V437.693z M439.883,207.386l-46.425-42.466V89.505l79.358,54.001 L439.883,207.386z"></path> </g> </g> </g></svg>