<svg fill="#000000" height="200px" width="200px" version="1.1" id="Capa_1" xmlns="http://www.w3.org/2000/svg" xmlns:xlink="http://www.w3.org/1999/xlink" viewBox="0 0 406.834 406.834" xml:space="preserve"><g id="SVGRepo_bgCarrier" stroke-width="0"></g><g id="SVGRepo_tracerCarrier" stroke-linecap="round" stroke-linejoin="round"></g><g id="SVGRepo_iconCarrier"> <path d="M183.163,274.62c-5.522,0-10-4.478-10-10s4.478-10,10-10h10.254v-10.254c0-5.522,4.478-10,10-10s10,4.478,10,10v10.254 h10.253c5.522,0,10,4.478,10,10s-4.478,10-10,10h-10.253v10.253c0,5.522-4.478,10-10,10s-10-4.478-10-10V274.62H183.163z M406.834,394.247c0,5.522-4.478,10-10,10H10c-5.522,0-10-4.478-10-10s4.478-10,10-10h38.349V241.351c0-5.522,4.478-10,10-10h98.229 c10.428-14.638,27.536-24.202,46.837-24.202c19.302,0,36.412,9.564,46.84,24.202h56.074v-22.748h-55.441c-5.522,0-10-4.478-10-10 v-87.159c0-5.522,4.478-10,10-10h130.888c5.522,0,10,4.478,10,10v87.159c0,5.522-4.478,10-10,10h-55.446v22.748h22.154 c5.522,0,10,4.478,10,10v142.896h38.351C402.356,384.247,406.834,388.724,406.834,394.247z M371.775,188.603v-67.159H260.888v67.159 H371.775z M165.946,264.62c0,20.661,16.809,37.47,37.469,37.47c20.662,0,37.473-16.809,37.473-37.47s-16.811-37.471-37.473-37.471 C182.755,227.149,165.946,243.958,165.946,264.62z M338.483,251.351h-79.142c1.011,4.26,1.546,8.704,1.546,13.269 c0,31.688-25.782,57.47-57.473,57.47c-31.688,0-57.469-25.781-57.469-57.47c0-4.564,0.535-9.009,1.546-13.269H68.349v132.896 h270.135V251.351z M9.473,265.561c1.445,0.729,2.982,1.074,4.497,1.074c3.654,0,7.177-2.012,8.936-5.497l29.737-58.937 c9.41-18.646,20.026-26.252,36.642-26.252h22.71c16.615,0,27.232,7.605,36.646,26.252c2.487,4.931,8.503,6.908,13.434,4.421 c4.93-2.488,6.909-8.503,4.42-13.434c-8.069-15.986-22.499-37.239-54.499-37.239h-22.71c-32.001,0-46.429,21.254-54.497,37.241 L5.05,252.128C2.562,257.059,4.542,263.074,9.473,265.561z M16.053,108.007c-1.374-6.18-2.07-12.527-2.07-18.867 c0-47.726,38.827-86.553,86.553-86.553c47.725,0,86.552,38.827,86.552,86.553c0,6.353-0.696,12.702-2.07,18.871 c-1.019,4.573-5.075,7.826-9.761,7.826h-31.649c-8.952,14.39-24.912,23.989-43.071,23.989c-18.158,0-34.118-9.6-43.07-23.989h-31.65 C21.128,115.837,17.069,112.583,16.053,108.007z M124.364,108.455c-21.216-5.186-37.236-23.763-38.56-46.229 C76.304,67.448,69.85,77.555,69.85,89.14c0,0.017,0,0.033,0,0.05c0.027,16.897,13.782,30.637,30.686,30.637 C110.144,119.827,118.733,115.389,124.364,108.455z M131.223,89.14c0-15.154-11.043-27.778-25.505-30.249 c-0.001,0.107-0.002,0.214-0.002,0.321c0,15.155,11.043,27.78,25.505,30.249c0.001-0.091,0.002-0.181,0.002-0.271 C131.223,89.173,131.223,89.157,131.223,89.14z M33.982,89.14c0,2.235,0.112,4.473,0.336,6.697h15.967 c-0.286-2.178-0.432-4.385-0.436-6.615c0-0.003,0-0.008,0-0.012c0-0.01,0-0.019,0-0.028c0-0.014,0-0.028,0-0.042 c0-26.463,20.385-48.254,46.275-50.496c0.106-0.011,0.214-0.02,0.322-0.027c1.349-0.108,2.711-0.163,4.088-0.163 c27.949,0,50.688,22.738,50.688,50.687c0,0.014,0,0.028,0,0.042c0,0,0,0.018,0,0.026c0,0.005,0,0.009,0,0.014 c-0.004,2.23-0.149,4.438-0.437,6.615h15.966c0.223-2.223,0.335-4.459,0.335-6.697c0-36.697-29.855-66.553-66.552-66.553 C63.838,22.587,33.982,52.443,33.982,89.14z"></path> </g></svg>