<svg viewBox="0 0 28 28" fill="none" xmlns="http://www.w3.org/2000/svg"><g id="SVGRepo_bgCarrier" stroke-width="0"></g><g id="SVGRepo_tracerCarrier" stroke-linecap="round" stroke-linejoin="round"></g><g id="SVGRepo_iconCarrier"><path clip-rule="evenodd" d="M6.5 1C5.39543 1 4.5 1.89543 4.5 3V4C4.5 5.10457 5.39543 6 6.5 6C6.49244 7.33293 6.70057 8.9592 7.32744 10.3992C7.73965 11.346 8.59008 12.5774 9.98932 13.0034C10.0225 13.0284 9.96615 12.9757 10 13C8.42517 13.5 7.31142 14.6412 6.68214 15.7596C5.59109 17.6987 5.27103 20.0819 5.65721 22.1857C4.97378 22.5037 4.5 23.1965 4.5 24V25C4.5 26.1046 5.39543 27 6.5 27H21.5C22.6046 27 23.5 26.1046 23.5 25V24C23.5 23.1071 22.9149 22.3509 22.1072 22.0938C22.4676 20.0128 22.1411 17.6705 21.0659 15.7596C20.4224 14.616 19.3229 13.5985 18 13C19 12.5 20.0387 11.4069 20.5232 10.4528C21.2625 8.99716 21.5084 7.35122 21.4996 6C22.6042 6 23.5 5.10457 23.5 4V3C23.5 1.89543 22.6046 1 21.5 1H6.5ZM7.65878 22H20.0893C20.4487 20.2867 20.2 18.2992 19.3229 16.7404C18.4265 15.1472 16.8826 14 14.5631 14H13.1849C10.8654 14 9.32158 15.1472 8.42517 16.7404C7.54805 18.2992 7.29935 20.2867 7.65878 22ZM14.4918 12C15.6839 12 16.5643 11.7107 17.2234 11.285C17.8869 10.8564 18.3812 10.2536 18.74 9.54716C19.309 8.42699 19.5087 7.09828 19.4999 6H8.50014C8.49258 7.11659 8.66671 8.46495 9.16121 9.60085C9.47455 10.3206 9.89841 10.9142 10.4453 11.3264C10.9803 11.7296 11.6861 12 12.6499 12H14.4918ZM6.5 3H21.5V4H6.5V3ZM6.5 24H21.5V25H6.5V24Z" fill="#000000" fill-rule="evenodd"></path></g></svg>